<svg xmlns="http://www.w3.org/2000/svg" height="393.918" width="349.007" id="md-berlin"><style id="style2">.st2{fill:#808184}</style><path class="st2" d="M341.532 3H7.475A4.48 4.48 0 0 0 3 7.475v282.55c0 1.594.858 3.081 2.239 3.88l167.037 96.416a4.488 4.488 0 0 0 4.478-.002l167.017-96.416a4.494 4.494 0 0 0 2.236-3.878V7.475A4.48 4.48 0 0 0 341.532 3zm-4.475 11.95v272.491l-1.5.865-159.543 92.104-1.5.866-1.5-.865L13.45 288.307l-1.5-.866V11.95h325.107z" id="path4" fill="#808184"/><g id="g899"><path class="st2" d="M59.832 68.552v24.4h-5.596V47.924h4.419l7.129 23.693h.829l7.246-23.693h4.244v45.028h-5.6V68.375l-5.48 20.332h-1.886z" id="path6" fill="#808184"/><path class="st2" d="M92.49 92.952h-5.774V47.924h5.774z" id="path8" fill="#808184"/><path class="st2" d="M106.222 77.509V88.06h4.953V77.864l-9.608-13.732c-.647-1.001-1.119-1.886-1.119-2.947v-9.606c0-1.886 1.472-3.654 3.536-3.654h9.55c2.239 0 3.536 1.592 3.536 3.772v9.194h-5.778v-8.075h-4.949v7.898l9.194 12.966c.825 1.297 1.534 2.475 1.534 3.772v11.729c0 2.062-1.355 3.772-3.536 3.772h-9.55c-1.828 0-3.536-1.355-3.536-3.714v-11.73z" id="path10" fill="#808184"/><path class="st2" d="M130.039 77.509V88.06h4.953V77.864l-9.608-13.732c-.646-1.001-1.119-1.886-1.119-2.947v-9.606c0-1.886 1.472-3.654 3.536-3.654h9.55c2.238 0 3.536 1.592 3.536 3.772v9.194h-5.778v-8.075h-4.95v7.898l9.194 12.966c.825 1.297 1.534 2.475 1.534 3.772v11.729c0 2.062-1.355 3.772-3.536 3.772h-9.55c-1.828 0-3.536-1.355-3.536-3.714v-11.73z" id="path12" fill="#808184"/><path class="st2" d="M154.659 92.952h-5.774V47.924h5.774z" id="path14" fill="#808184"/><path class="st2" d="M182.734 89.298c0 2.356-2.061 3.654-3.535 3.654h-12.73c-1.472 0-3.536-1.297-3.536-3.654v-37.72c0-2.358 2.064-3.654 3.536-3.654h12.73c1.475 0 3.535 1.295 3.535 3.654v37.72zm-5.775-36.483h-8.252v35.246h8.252z" id="path16" fill="#808184"/><path class="st2" d="M196.532 69.141v23.811h-5.363V47.924h3.005l10.43 24.636V47.924h5.363v45.028h-3.121z" id="path18" fill="#808184"/><path class="st2" d="M236.381 47.924h9.961c4.24 0 8.369 2.357 8.369 7.544v30.234c0 4.951-4.009 7.25-8.137 7.25h-10.193zm5.775 40.137h2.769c2.653 0 4.009-1.71 4.009-3.772V56.47c0-2.181-1.533-3.654-3.772-3.654h-3.005v35.245z" id="path20" fill="#808184"/><path class="st2" d="M276.994 92.952l-1.355-8.723h-8.132l-1.414 8.723h-5.72l8.369-45.028h5.956l8.249 45.028zm-5.127-31.061h-.411l-3.125 17.328h6.483z" id="path22" fill="#808184"/><path class="st2" d="M291.551 75.919l-7.602-27.996h5.894l4.833 18.86 4.478-18.86h5.716l-7.544 27.996v17.032h-5.774V75.919z" id="path24" fill="#808184"/></g><g id="g32"><path class="st2" d="M176.655 145.284l-38.011 21.934.011 43.865 38 21.927 37.967-21.927v-43.865zm0 82.26l-30.976-17.868 12.879-7.7-2.428-4.06-12.751 7.628v-35.602l30.914-17.833v14.872h4.721V152.11l30.877 17.833v35.217l-12.384-6.986-2.337 4.122 12.751 7.191z" id="path28" fill="#808184"/><path class="st2" d="M149 173.154l27.64 47.824 27.632-47.824zm27.64 13.185l-14.434-8.342h28.853zm-2.416 4.186v16.603l-14.416-24.939zm4.833 0l14.408-8.336-14.408 24.939z" id="path30" fill="#808184"/></g><path d="M240.997 196.787V181.09l52.59-28.932-.105-32.095-55.134 30.391-61.707-35.638-61.607 35.578-55.35-30.227.192 31.699 52.401 28.812v16.005l-52.593-28.721.192 31.699 117.153 64.41 116.558-64.123-.105-32.091zm-17.563 19.382l-46.794 27.025-46.808-27.025v-54.045l46.808-27.023 46.794 27.023z" id="path38" fill="#e86e2d"/><g aria-label="ZAPORIZHZHIA" style="line-height:1.25;-inkscape-font-specification:AmarilloUSAF" id="text51" font-weight="400" font-size="48" font-family="AmarilloUSAF" letter-spacing="0" word-spacing="0" fill="#808184"><path d="M68.825 302.258h-14.4l-4.8-4.8 13.008-18.624-.576-.576H49.625v-4.8h14.4l4.8 4.8-13.008 18.624.576.576h12.432z" id="path49"/><path d="M92.729 302.258h-4.944l-1.2-4.8h-6.816l-1.2 4.8h-4.944l6.96-28.8h5.184zm-7.344-9.6l-2.208-8.88-2.208 8.88z" id="path51"/><path d="M116.825 285.458l-4.992 4.8h-9.408v12h-4.8v-28.8h14.4l4.8 4.8zm-4.8-1.968v-3.264l-1.968-1.968h-7.632v7.2h7.632z" id="path53"/><path d="M140.825 297.458l-4.992 4.8h-9.408l-4.8-4.8v-19.2l4.8-4.8h9.6l4.8 4.8zm-4.8-1.968v-15.264l-1.968-1.968h-5.664l-1.968 1.968v15.264l1.968 1.968h5.664z" id="path55"/><path d="M164.825 285.458l-4.992 4.8 4.992 12h-5.232l-5.088-12h-4.08v12h-4.8v-28.8h14.4l4.8 4.8zm-4.8-1.968v-3.264l-1.968-1.968h-7.632v7.2h7.632z" id="path57"/><path d="M174.425 302.258h-4.8v-28.8h4.8z" id="path59"/><path d="M198.387 302.258h-14.4l-4.8-4.8 13.008-18.624-.576-.576h-12.432v-4.8h14.4l4.8 4.8-13.008 18.624.576.576h12.432z" id="path61"/><path d="M222.387 302.258h-4.8v-12h-9.6v12h-4.8v-28.8h4.8v12h9.6v-12h4.8z" id="path63"/><path d="M246.387 302.258h-14.4l-4.8-4.8 13.008-18.624-.576-.576h-12.432v-4.8h14.4l4.8 4.8-13.008 18.624.576.576h12.432z" id="path65"/><path d="M270.387 302.258h-4.8v-12h-9.6v12h-4.8v-28.8h4.8v12h9.6v-12h4.8z" id="path67"/><path d="M279.987 302.258h-4.8v-28.8h4.8z" id="path69"/><path d="M303.854 302.258h-4.944l-1.2-4.8h-6.816l-1.2 4.8h-4.944l6.96-28.8h5.184zm-7.344-9.6l-2.208-8.88-2.208 8.88z" id="path71"/></g></svg>