<?xml version="1.0" encoding="UTF-8" standalone="no"?>
<svg
   xmlns:dc="http://purl.org/dc/elements/1.1/"
   xmlns:cc="http://creativecommons.org/ns#"
   xmlns:rdf="http://www.w3.org/1999/02/22-rdf-syntax-ns#"
   xmlns:svg="http://www.w3.org/2000/svg"
   xmlns="http://www.w3.org/2000/svg"
   xmlns:sodipodi="http://sodipodi.sourceforge.net/DTD/sodipodi-0.dtd"
   xmlns:inkscape="http://www.inkscape.org/namespaces/inkscape"
   xml:space="preserve"
   style="enable-background:new 0 0 349.007 393.918;"
   viewBox="0 0 349.007 393.918"
   height="393.918px"
   width="349.007px"
   y="0px"
   x="0px"
   id="md-berlin"
   version="1.1"
   sodipodi:docname="md-blank.svg"
   inkscape:version="0.92.2 (5c3e80d, 2017-08-06)"><sodipodi:namedview
     pagecolor="#ffffff"
     bordercolor="#666666"
     borderopacity="1"
     objecttolerance="10"
     gridtolerance="10"
     guidetolerance="10"
     inkscape:pageopacity="0"
     inkscape:pageshadow="2"
     inkscape:window-width="1920"
     inkscape:window-height="1021"
     id="namedview27"
     showgrid="false"
     inkscape:zoom="1.6945374"
     inkscape:cx="210.82063"
     inkscape:cy="168.21155"
     inkscape:window-x="0"
     inkscape:window-y="28"
     inkscape:window-maximized="1"
     inkscape:current-layer="md-berlin" /><metadata
     id="metadata47"><rdf:RDF><cc:Work
         rdf:about=""><dc:format>image/svg+xml</dc:format><dc:type
           rdf:resource="http://purl.org/dc/dcmitype/StillImage" /><dc:title /></cc:Work></rdf:RDF></metadata><defs
     id="defs45" /><style
     id="style2"
     type="text/css"><![CDATA[
	.st0{fill:#E86E2D;}
	.st1{fill:#808184;}
	.st2{fill:#808184;}
]]></style><path
     inkscape:connector-curvature="0"
     class="st2"
     d="M 341.532,3 H 7.475 C 5.007,3 3,5.007 3,7.475 v 282.55 c 0,1.594 0.858,3.081 2.239,3.88 l 167.037,96.416 c 0.678,0.39 1.454,0.598 2.238,0.598 0.784,0 1.559,-0.207 2.24,-0.6 l 167.017,-96.416 c 1.378,-0.797 2.236,-2.284 2.236,-3.878 V 7.475 C 346.007,5.007 344,3 341.532,3 Z m -4.475,11.95 v 270.759 1.732 l -1.5,0.865 -159.543,92.104 -1.5,0.866 -1.5,-0.865 -159.564,-92.104 -1.5,-0.866 v -1.732 -270.759 -3 h 3 319.107 3 z"
     id="path4"
     style="fill:#808184" /><g
     id="g899"><path
       inkscape:connector-curvature="0"
       class="st2"
       d="m 59.832,68.552 v 24.4 H 54.236 V 47.924 h 4.419 l 7.129,23.693 h 0.829 l 7.246,-23.693 h 4.244 v 45.028 h -5.6 V 68.375 l -5.48,20.332 h -1.886 z"
       id="path6"
       style="fill:#808184" /><path
       inkscape:connector-curvature="0"
       class="st2"
       d="M 92.49,92.952 H 86.716 V 47.924 h 5.774 z"
       id="path8"
       style="fill:#808184" /><path
       inkscape:connector-curvature="0"
       class="st2"
       d="M 106.222,77.509 V 88.06 h 4.953 V 77.864 l -9.608,-13.732 c -0.647,-1.001 -1.119,-1.886 -1.119,-2.947 0,-3.83 0,-5.598 0,-9.606 0,-1.886 1.472,-3.654 3.536,-3.654 3.478,0 6.072,0 9.55,0 2.239,0 3.536,1.592 3.536,3.772 v 9.194 h -5.778 v -8.075 h -4.949 v 7.898 l 9.194,12.966 c 0.825,1.297 1.534,2.475 1.534,3.772 0,5.009 0,6.719 0,11.729 0,2.062 -1.355,3.772 -3.536,3.772 -3.478,0 -6.072,0 -9.55,0 -1.828,0 -3.536,-1.355 -3.536,-3.714 v -11.73 z"
       id="path10"
       style="fill:#808184" /><path
       inkscape:connector-curvature="0"
       class="st2"
       d="M 130.039,77.509 V 88.06 h 4.953 V 77.864 l -9.608,-13.732 c -0.646,-1.001 -1.119,-1.886 -1.119,-2.947 0,-3.83 0,-5.598 0,-9.606 0,-1.886 1.472,-3.654 3.536,-3.654 3.478,0 6.072,0 9.55,0 2.238,0 3.536,1.592 3.536,3.772 v 9.194 h -5.778 v -8.075 h -4.95 v 7.898 l 9.194,12.966 c 0.825,1.297 1.534,2.475 1.534,3.772 0,5.009 0,6.719 0,11.729 0,2.062 -1.355,3.772 -3.536,3.772 -3.478,0 -6.072,0 -9.55,0 -1.828,0 -3.536,-1.355 -3.536,-3.714 v -11.73 z"
       id="path12"
       style="fill:#808184" /><path
       inkscape:connector-curvature="0"
       class="st2"
       d="m 154.659,92.952 h -5.774 V 47.924 h 5.774 z"
       id="path14"
       style="fill:#808184" /><path
       inkscape:connector-curvature="0"
       class="st2"
       d="m 182.734,89.298 c 0,2.356 -2.061,3.654 -3.535,3.654 -4.713,0 -8.013,0 -12.73,0 -1.472,0 -3.536,-1.297 -3.536,-3.654 0,-14.793 0,-22.926 0,-37.72 0,-2.358 2.064,-3.654 3.536,-3.654 4.717,0 8.017,0 12.73,0 1.475,0 3.535,1.295 3.535,3.654 0,14.794 0,22.926 0,37.72 z m -5.775,-36.483 h -8.252 v 35.246 h 8.252 z"
       id="path16"
       style="fill:#808184" /><path
       inkscape:connector-curvature="0"
       class="st2"
       d="m 196.532,69.141 v 23.811 h -5.363 V 47.924 h 3.005 l 10.43,24.636 V 47.924 h 5.363 v 45.028 h -3.121 z"
       id="path18"
       style="fill:#808184" /><path
       inkscape:connector-curvature="0"
       class="st2"
       d="m 236.381,47.924 h 9.961 c 4.24,0 8.369,2.357 8.369,7.544 0,12.377 0,17.857 0,30.234 0,4.951 -4.009,7.25 -8.137,7.25 h -10.193 z m 5.775,40.137 h 2.769 c 2.653,0 4.009,-1.71 4.009,-3.772 0,-10.255 0,-17.564 0,-27.819 0,-2.181 -1.533,-3.654 -3.772,-3.654 h -3.005 v 35.245 z"
       id="path20"
       style="fill:#808184" /><path
       inkscape:connector-curvature="0"
       class="st2"
       d="m 276.994,92.952 -1.355,-8.723 h -8.132 l -1.414,8.723 h -5.72 l 8.369,-45.028 h 5.956 l 8.249,45.028 z m -5.127,-31.061 h -0.411 l -3.125,17.328 h 6.483 z"
       id="path22"
       style="fill:#808184" /><path
       inkscape:connector-curvature="0"
       class="st2"
       d="m 291.551,75.919 -7.602,-27.996 h 5.894 l 4.833,18.86 4.478,-18.86 h 5.716 l -7.544,27.996 v 17.032 h -5.774 V 75.919 Z"
       id="path24"
       style="fill:#808184" /></g><g
     id="g32"><path
       inkscape:connector-curvature="0"
       class="st2"
       d="m 176.655,145.284 -38.011,21.934 0.011,43.865 38,21.927 37.967,-21.927 v -43.865 z m 0,82.26 -30.976,-17.868 12.879,-7.7 -2.428,-4.06 -12.751,7.628 v -35.602 l 30.914,-17.833 v 14.872 h 4.721 V 152.11 l 30.877,17.833 v 35.217 l -12.384,-6.986 -2.337,4.122 12.751,7.191 z"
       id="path28"
       style="fill:#808184" /><path
       inkscape:connector-curvature="0"
       class="st2"
       d="m 149,173.154 27.64,47.824 27.632,-47.824 z m 27.64,13.185 -14.434,-8.342 h 28.853 z m -2.416,4.186 v 16.603 l -14.416,-24.939 z m 4.833,0 14.408,-8.336 -14.408,24.939 z"
       id="path30"
       style="fill:#808184" /></g><path
     inkscape:connector-curvature="0"
     class="st1"
     d="M 178.584,161.015"
     id="path34"
     style="fill:#808184" /><path
     inkscape:connector-curvature="0"
     class="st1"
     d="M 178.584,200.355"
     id="path36"
     style="fill:#808184" /><path
     inkscape:connector-curvature="0"
     class="st0"
     d="M 240.997,196.787 V 181.09 l 52.59,-28.932 -0.105,-32.095 -55.134,30.391 -61.707,-35.638 -61.607,35.578 -55.35,-30.227 0.192,31.699 52.401,28.812 v 16.005 l -52.593,-28.721 0.192,31.699 117.153,64.41 116.558,-64.123 -0.105,-32.091 z m -17.563,19.382 -46.794,27.025 -46.808,-27.025 v -54.045 l 46.808,-27.023 46.794,27.023 z"
     id="path38"
     style="fill:#e86e2d" /><g
     aria-label="ZAPORIZHZHIA"
     style="font-style:normal;font-variant:normal;font-weight:normal;font-stretch:normal;font-size:48px;line-height:1.25;font-family:AmarilloUSAF;-inkscape-font-specification:AmarilloUSAF;letter-spacing:0px;word-spacing:0px;fill:#808184;fill-opacity:1;stroke:none"
     id="text51"><path
       d="m 68.824888,302.25821 h -14.4 l -4.8,-4.8 13.008,-18.624 -0.576,-0.576 h -12.432 v -4.8 h 14.4 l 4.8,4.8 -13.008,18.624 0.576,0.576 h 12.432 z"
       style=""
       id="path49" /><path
       d="m 92.728888,302.25821 h -4.944 l -1.2,-4.8 h -6.816 l -1.2,4.8 h -4.944 l 6.96,-28.8 h 5.184 z m -7.344,-9.6 -2.208,-8.88 -2.208,8.88 z"
       style=""
       id="path51" /><path
       d="m 116.82489,285.45821 -4.992,4.8 h -9.408 v 12 h -4.800002 v -28.8 h 14.400002 l 4.8,4.8 z m -4.8,-1.968 v -3.264 l -1.968,-1.968 h -7.632 v 7.2 h 7.632 z"
       style=""
       id="path53" /><path
       d="m 140.82489,297.45821 -4.992,4.8 h -9.408 l -4.8,-4.8 v -19.2 l 4.8,-4.8 h 9.6 l 4.8,4.8 z m -4.8,-1.968 v -15.264 l -1.968,-1.968 h -5.664 l -1.968,1.968 v 15.264 l 1.968,1.968 h 5.664 z"
       style=""
       id="path55" /><path
       d="m 164.82489,285.45821 -4.992,4.8 4.992,12 h -5.232 l -5.088,-12 h -4.08 v 12 h -4.8 v -28.8 h 14.4 l 4.8,4.8 z m -4.8,-1.968 v -3.264 l -1.968,-1.968 h -7.632 v 7.2 h 7.632 z"
       style=""
       id="path57" /><path
       d="m 174.42489,302.25821 h -4.8 v -28.8 h 4.8 z"
       style=""
       id="path59" /><path
       d="m 198.38739,302.25821 h -14.4 l -4.8,-4.8 13.008,-18.624 -0.576,-0.576 h -12.432 v -4.8 h 14.4 l 4.8,4.8 -13.008,18.624 0.576,0.576 h 12.432 z"
       style=""
       id="path61" /><path
       d="m 222.38739,302.25821 h -4.8 v -12 h -9.6 v 12 h -4.8 v -28.8 h 4.8 v 12 h 9.6 v -12 h 4.8 z"
       style=""
       id="path63" /><path
       d="m 246.38739,302.25821 h -14.4 l -4.8,-4.8 13.008,-18.624 -0.576,-0.576 h -12.432 v -4.8 h 14.4 l 4.8,4.8 -13.008,18.624 0.576,0.576 h 12.432 z"
       style=""
       id="path65" /><path
       d="m 270.38739,302.25821 h -4.8 v -12 h -9.6 v 12 h -4.8 v -28.8 h 4.8 v 12 h 9.6 v -12 h 4.8 z"
       style=""
       id="path67" /><path
       d="m 279.98739,302.25821 h -4.8 v -28.8 h 4.8 z"
       style=""
       id="path69" /><path
       d="m 303.85389,302.25821 h -4.944 l -1.2,-4.8 h -6.816 l -1.2,4.8 h -4.944 l 6.96,-28.8 h 5.184 z m -7.344,-9.6 -2.208,-8.88 -2.208,8.88 z"
       style=""
       id="path71" /></g></svg>